<?xml version="1.0" encoding="utf-8"?>
<!-- Generator: Adobe Illustrator 27.4.0, SVG Export Plug-In . SVG Version: 6.00 Build 0)  -->
<svg version="1.1" id="Layer_2_00000180324541905830042140000015676357536857191842_"
	 xmlns="http://www.w3.org/2000/svg" xmlns:xlink="http://www.w3.org/1999/xlink" x="0px" y="0px" viewBox="0 0 419.8 162.1"
	 style="enable-background:new 0 0 419.8 162.1;" xml:space="preserve">
<style type="text/css">
	.st0{fill:#FFFFFF;}
</style>
<g id="Layer_1-2">
	<path class="st0" d="M13.9,154.8c0.5-0.1,0.9-0.4,1.2-0.8s0.4-0.9,0.4-1.5v-1.3c0-0.5-0.1-0.9-0.2-1.2s-0.4-0.7-0.7-0.9
		s-0.8-0.4-1.3-0.6c-0.6-0.1-1.2-0.2-2-0.2H0v13.9h11.4c0.9,0,1.6-0.1,2.1-0.2c0.6-0.2,1-0.4,1.4-0.7s0.6-0.6,0.7-1s0.2-0.7,0.2-1.1
		v-2c0-0.7-0.2-1.2-0.5-1.5S14.5,154.9,13.9,154.8L13.9,154.8z M2.6,150.2h8.7c0.6,0,1.1,0.1,1.3,0.3c0.2,0.2,0.4,0.4,0.4,0.8v1.4
		c0,0.4-0.1,0.7-0.4,0.8s-0.7,0.3-1.3,0.3H2.6L2.6,150.2L2.6,150.2z M13.1,158.6c0,0.6-0.2,0.9-0.5,1.1s-0.8,0.3-1.3,0.3H2.6v-4.1
		h8.7c0.5,0,1,0.1,1.3,0.3c0.3,0.2,0.5,0.5,0.5,0.9L13.1,158.6L13.1,158.6z"/>
	<polygon class="st0" points="29.3,148.1 20.1,162.1 23,162.1 30.3,150.9 37.5,162.1 40.4,162.1 31.2,148.1 	"/>
	<polygon class="st0" points="41.4,150.2 48.7,150.2 48.7,162.1 51.3,162.1 51.3,150.2 58.4,150.2 58.4,148.1 41.4,148.1 	"/>
	<polygon class="st0" points="63.3,150.2 70.6,150.2 70.6,162.1 73.2,162.1 73.2,150.2 80.3,150.2 80.3,148.1 63.3,148.1 	"/>
	<polygon class="st0" points="88.7,148.1 86,148.1 86,162.1 100,162.1 100,160 88.7,160 	"/>
	<polygon class="st0" points="105.8,150.2 108.4,150.2 120.1,150.2 120.1,148.1 105.8,148.1 	"/>
	<polygon class="st0" points="108.4,155.7 119.5,155.7 119.5,153.7 108.4,153.7 105.8,153.7 105.8,162.1 120.1,162.1 120.1,160 
		108.4,160 	"/>
	<path class="st0" d="M156.9,149.1c-0.4-0.3-0.8-0.5-1.4-0.7s-1.2-0.2-2-0.2h-9.2c-0.8,0-1.5,0.1-2,0.2c-0.6,0.2-1,0.4-1.4,0.7
		c-0.4,0.3-0.6,0.6-0.8,1.1c-0.2,0.4-0.2,0.9-0.2,1.4v7.2c0,0.5,0.1,1,0.2,1.4c0.2,0.4,0.4,0.8,0.8,1.1c0.4,0.3,0.8,0.5,1.4,0.7
		s1.2,0.2,2,0.2h9.2c0.8,0,1.5-0.1,2-0.2c0.6-0.2,1-0.4,1.4-0.7c0.4-0.3,0.6-0.6,0.8-1.1c0.2-0.4,0.2-0.9,0.2-1.4v-7.2
		c0-0.5-0.1-1-0.2-1.4C157.5,149.7,157.3,149.4,156.9,149.1z M155.3,158.7c0,0.9-0.6,1.3-1.7,1.3h-9.2c-1.2,0-1.7-0.4-1.7-1.3v-7.2
		c0-0.9,0.6-1.3,1.7-1.3h9.2c1.2,0,1.7,0.4,1.7,1.3V158.7z"/>
	<polygon class="st0" points="164.4,154.3 164.4,162.1 167,162.1 167,156.3 177.9,156.3 177.9,154.3 167,154.3 	"/>
	<polygon class="st0" points="164.4,150.2 167,150.2 178.7,150.2 178.7,148.1 164.4,148.1 	"/>
	<polygon class="st0" points="197,150.2 204.3,150.2 204.3,162.1 207,162.1 207,150.2 214.1,150.2 214.1,148.1 197,148.1 	"/>
	<polygon class="st0" points="233.8,153.7 222.4,153.7 222.4,148.1 219.8,148.1 219.8,162.1 222.4,162.1 222.4,155.7 233.8,155.7 
		233.8,162.1 236.4,162.1 236.4,148.1 233.8,148.1 	"/>
	<polygon class="st0" points="245.6,155.7 256.6,155.7 256.6,153.7 245.6,153.7 242.9,153.7 242.9,162.1 257.2,162.1 257.2,160 
		245.6,160 	"/>
	<polygon class="st0" points="242.9,150.2 245.6,150.2 257.2,150.2 257.2,148.1 242.9,148.1 	"/>
	<path class="st0" d="M292.9,154.6c-0.4-0.3-0.8-0.5-1.4-0.7c-0.5-0.2-1.2-0.2-2-0.2h-8.2c-1.2,0-1.7-0.4-1.7-1.3v-0.9
		c0-0.9,0.6-1.3,1.7-1.3h11.8v-2.1h-11.8c-0.8,0-1.5,0.1-2,0.2c-0.5,0.2-1,0.4-1.4,0.7c-0.4,0.3-0.6,0.6-0.8,1.1s-0.2,0.9-0.2,1.4
		v0.8c0,0.5,0.1,1,0.2,1.4c0.2,0.4,0.4,0.8,0.8,1.1s0.8,0.5,1.4,0.7s1.2,0.2,2,0.2h8.2c1.2,0,1.7,0.4,1.7,1.3v1.8
		c0,0.9-0.6,1.3-1.7,1.3h-12.1v2.1h12.1c0.8,0,1.5-0.1,2-0.2c0.5-0.2,1-0.4,1.4-0.7c0.4-0.3,0.6-0.6,0.8-1.1s0.2-0.9,0.2-1.4V157
		c0-0.5-0.1-1-0.2-1.4C293.5,155.2,293.3,154.9,292.9,154.6L292.9,154.6z"/>
	<polygon class="st0" points="298.7,150.2 306,150.2 306,162.1 308.7,162.1 308.7,150.2 315.8,150.2 315.8,148.1 298.7,148.1 	"/>
	<path class="st0" d="M336.1,158.7c0,0.9-0.6,1.3-1.7,1.3h-8.6c-1.2,0-1.7-0.4-1.7-1.3v-10.6h-2.6v10.6c0,0.5,0.1,1,0.2,1.4
		c0.2,0.4,0.4,0.8,0.8,1.1s0.8,0.5,1.4,0.7c0.5,0.2,1.2,0.2,2,0.2h9.2c0.8,0,1.4-0.1,1.9-0.2c0.5-0.2,0.9-0.4,1.2-0.7
		c0.3-0.3,0.5-0.6,0.6-1.1s0.1-0.9,0.1-1.4v-10.6h-2.6V158.7z"/>
	<path class="st0" d="M362,149.2c-0.4-0.3-0.9-0.6-1.6-0.8c-0.7-0.2-1.5-0.3-2.5-0.3h-12.8v13.9H358c1,0,1.8-0.1,2.5-0.3
		s1.2-0.4,1.6-0.8c0.4-0.3,0.7-0.7,0.8-1.2c0.2-0.5,0.2-1.1,0.2-1.7v-5.8c0-0.7-0.1-1.3-0.2-1.8S362.4,149.5,362,149.2L362,149.2z
		 M360.5,158.1c0,0.4,0,0.7-0.1,0.9s-0.2,0.4-0.4,0.6c-0.2,0.1-0.5,0.2-0.8,0.3c-0.3,0.1-0.7,0.1-1.2,0.1h-10.1v-9.8H358
		c0.5,0,0.9,0,1.2,0.1c0.3,0.1,0.6,0.2,0.8,0.3s0.3,0.4,0.4,0.6c0.1,0.3,0.1,0.6,0.1,1V158.1L360.5,158.1z"/>
	<rect x="369.6" y="148.1" class="st0" width="2.6" height="13.9"/>
	<path class="st0" d="M395.7,149.1c-0.4-0.3-0.8-0.5-1.4-0.7c-0.5-0.2-1.2-0.2-2-0.2h-9.2c-0.8,0-1.5,0.1-2,0.2
		c-0.5,0.2-1,0.4-1.4,0.7c-0.4,0.3-0.6,0.6-0.8,1.1s-0.2,0.9-0.2,1.4v7.2c0,0.5,0.1,1,0.2,1.4c0.2,0.4,0.4,0.8,0.8,1.1
		s0.8,0.5,1.4,0.7c0.5,0.2,1.2,0.2,2,0.2h9.2c0.8,0,1.5-0.1,2-0.2c0.5-0.2,1-0.4,1.4-0.7c0.4-0.3,0.6-0.6,0.8-1.1s0.2-0.9,0.2-1.4
		v-7.2c0-0.5-0.1-1-0.2-1.4C396.3,149.7,396.1,149.4,395.7,149.1z M394.1,158.7c0,0.9-0.6,1.3-1.7,1.3h-9.2c-1.2,0-1.7-0.4-1.7-1.3
		v-7.2c0-0.9,0.6-1.3,1.7-1.3h9.2c1.2,0,1.7,0.4,1.7,1.3V158.7z"/>
	<path class="st0" d="M419.6,155.6c-0.2-0.4-0.4-0.8-0.8-1.1s-0.8-0.5-1.4-0.7c-0.5-0.2-1.2-0.2-2-0.2h-8.2c-1.2,0-1.7-0.4-1.7-1.3
		v-0.9c0-0.9,0.6-1.3,1.7-1.3H419v-2.1h-11.8c-0.8,0-1.5,0.1-2,0.2c-0.5,0.2-1,0.4-1.4,0.7c-0.4,0.3-0.6,0.6-0.8,1.1
		s-0.2,0.9-0.2,1.4v0.8c0,0.5,0.1,1,0.2,1.4c0.2,0.4,0.4,0.8,0.8,1.1s0.8,0.5,1.4,0.7s1.2,0.2,2,0.2h8.2c1.2,0,1.7,0.4,1.7,1.3v1.8
		c0,0.9-0.6,1.3-1.7,1.3h-12.1v2.1h12.1c0.8,0,1.5-0.1,2-0.2c0.5-0.2,1-0.4,1.4-0.7s0.6-0.6,0.8-1.1s0.2-0.9,0.2-1.4V157
		C419.8,156.5,419.7,156,419.6,155.6L419.6,155.6z"/>
	<path class="st0" d="M394.1,71.8c-2.2-4.1-5.2-7.4-9-9.8s-8-4.2-12.7-5.3c-4.7-1.2-9.5-2-14.5-2.7c-5-0.7-9.8-1.3-14.5-1.8
		s-9-1.4-12.7-2.5s-6.7-2.8-9-5c-2.2-2.2-3.4-5.2-3.4-9.1c0-2.3,0.5-4.5,1.4-6.6c0.9-2.1,2.1-3.9,3.6-5.4c1.5-1.5,3.3-2.7,5.4-3.6
		c2-0.9,4.3-1.4,6.7-1.4h59.3v-18h-59.3c-4.8,0-9.4,0.9-13.6,2.7s-8,4.3-11.1,7.4c-3.2,3.2-5.7,6.9-7.5,11.1
		c-1.8,4.3-2.7,8.9-2.7,13.7c0,6.5,1.1,11.9,3.4,16s5.2,7.4,9,9.9s8,4.3,12.7,5.4s9.5,2.1,14.5,2.7c5,0.7,9.8,1.3,14.5,1.8
		s9,1.4,12.7,2.5s6.7,2.8,9,4.8c2.2,2.1,3.4,5,3.4,8.9c0,2.3-0.4,4.5-1.3,6.5c-0.9,2.1-2.1,3.8-3.6,5.3s-3.4,2.7-5.4,3.5
		c-2.1,0.8-4.3,1.3-6.7,1.3H258.2V18h40.6V0H162.4c-7.4,0-14.4,1.2-21,3.7c-0.9,0.3-1.9,0.7-2.8,1.1c-7.3,3.2-13.8,7.5-19.2,13
		c-1.6-2.8-3.5-5.3-5.7-7.5c-3.2-3.2-6.9-5.7-11.2-7.5C98.3,0.9,93.7,0,88.9,0H22.3v122.2h18V70h48.6c2.3,0,4.5,0.4,6.6,1.4
		c2.1,0.9,3.9,2.1,5.4,3.6c1.5,1.5,2.7,3.3,3.6,5.4c0,0.1,0.1,0.2,0.1,0.3c0.2,0.5,0.3,1,0.5,1.5c0.5,1.6,0.7,3.2,0.7,4.8
		c0,2.4-0.4,4.7-1.4,6.7c-0.9,2.1-2.1,3.8-3.6,5.3c-1.5,1.5-3.3,2.7-5.4,3.6c-2,0.8-4.1,1.3-6.2,1.3H58.3v18h31.5v0
		c4.5-0.1,8.8-1,12.8-2.7c4.2-1.8,7.9-4.3,11.2-7.5c2.3-2.3,4.2-4.8,5.8-7.7c5.5,5.4,11.9,9.7,19.2,12.9c7.4,3.2,15.3,4.8,23.8,4.8
		s16.2-1.6,23.6-4.8c7.4-3.2,13.8-7.6,19.3-13.1c5.5-5.5,9.9-11.9,13.1-19.3c3.2-7.4,4.8-15.3,4.8-23.8s-1.6-16.2-4.8-23.7
		c-0.2-0.5-0.4-0.9-0.6-1.4h-20.6c1.8,2.6,3.4,5.3,4.7,8.3c2.2,5.2,3.4,10.8,3.4,16.7s-1.1,11.5-3.4,16.7c-2.2,5.2-5.3,9.8-9.2,13.7
		c-3.9,3.9-8.4,7-13.6,9.2c-5.2,2.2-10.8,3.4-16.7,3.4s-11.5-1.1-16.7-3.4s-9.8-5.3-13.7-9.2c-3.9-3.9-7-8.5-9.2-13.7
		c-0.1-0.2-0.1-0.4-0.2-0.6c-0.4-1.3-0.8-2.6-1.4-3.9c-1.2-3.9-1.8-8-1.8-12.3s0.6-8.2,1.7-12c0.7-1.5,1.2-3,1.6-4.6
		c0,0,0-0.1,0.1-0.1c2.2-5.2,5.3-9.8,9.2-13.7s8.5-7,13.7-9.2c2-0.9,4-1.5,6.1-2.1c3.4-0.9,6.9-1.3,10.6-1.3h77.9v104.3h122.2
		c4.7,0,9.2-0.9,13.5-2.6s8-4.2,11.1-7.3c3.1-3.1,5.6-6.8,7.5-11c1.9-4.2,2.8-8.7,2.8-13.7C397.5,81.2,396.4,75.9,394.1,71.8
		L394.1,71.8z M105.4,39.4c-0.3,0.9-0.6,1.7-0.9,2.6c-0.9,1.9-2.1,3.6-3.5,5c-1.5,1.5-3.3,2.7-5.4,3.6c-2.1,0.9-4.3,1.4-6.6,1.4
		H40.3V18h48.6c2.3,0,4.5,0.5,6.6,1.4c2.1,0.9,3.9,2.1,5.4,3.6c1.5,1.5,2.7,3.3,3.6,5.4c0.9,2.1,1.4,4.3,1.4,6.6
		C105.9,36.6,105.7,38,105.4,39.4z"/>
</g>
</svg>
