<?xml version="1.0" encoding="UTF-8"?><svg id="Layer_2" xmlns="http://www.w3.org/2000/svg" viewBox="0 0 419.8 162.06"><g id="Layer_1-2"><path d="m13.95,154.75c.5-.11.9-.37,1.2-.78s.44-.93.44-1.53v-1.28c0-.46-.08-.88-.24-1.25s-.41-.69-.74-.95-.78-.45-1.32-.59c-.55-.14-1.2-.21-1.97-.21H0v13.91h11.37c.86,0,1.57-.08,2.13-.25.57-.16,1.02-.39,1.35-.66s.57-.6.71-.96c.14-.36.21-.74.21-1.14v-2.04c0-.67-.17-1.18-.51-1.53-.34-.35-.78-.6-1.3-.74Zm-11.33-4.55h8.7c.62,0,1.05.09,1.28.26.24.17.36.45.36.83v1.44c0,.38-.12.66-.36.83-.24.17-.67.26-1.28.26H2.63v-3.62Zm10.52,8.36c0,.57-.16.95-.49,1.15-.33.2-.76.3-1.28.3H2.63v-4.13h8.74c.53,0,.96.09,1.28.27.33.18.49.48.49.92v1.5Z"/><polygon points="29.31 148.15 20.06 162.06 22.99 162.06 30.28 150.86 37.46 162.06 40.42 162.06 31.23 148.15 29.31 148.15"/><polygon points="41.41 150.2 48.7 150.2 48.7 162.06 51.33 162.06 51.33 150.2 58.43 150.2 58.43 148.15 41.41 148.15 41.41 150.2"/><polygon points="63.31 150.2 70.6 150.2 70.6 162.06 73.23 162.06 73.23 150.2 80.33 150.2 80.33 148.15 63.31 148.15 63.31 150.2"/><polygon points="88.69 148.15 86.04 148.15 86.04 162.06 99.97 162.06 99.97 160.01 88.69 160.01 88.69 148.15"/><polygon points="105.76 150.2 108.39 150.2 120.07 150.2 120.07 148.15 105.76 148.15 105.76 150.2"/><polygon points="108.39 155.74 119.48 155.74 119.48 153.68 108.39 153.68 105.76 153.68 105.76 162.06 120.07 162.06 120.07 160.01 108.39 160.01 108.39 155.74"/><path d="m156.93,149.09c-.35-.3-.8-.53-1.35-.69-.55-.16-1.23-.25-2.02-.25h-9.19c-.79,0-1.46.08-2.02.25-.55.16-1.01.4-1.35.69-.35.3-.6.65-.76,1.06-.16.41-.24.86-.24,1.36v7.19c0,.5.08.96.24,1.36.16.41.41.76.76,1.06.35.3.8.53,1.35.69.55.16,1.23.25,2.02.25h9.19c.79,0,1.46-.08,2.02-.25.55-.16,1-.4,1.35-.69.35-.3.6-.65.76-1.06.16-.41.24-.86.24-1.36v-7.19c0-.5-.08-.96-.24-1.36-.16-.41-.41-.76-.76-1.06Zm-1.63,9.64c0,.86-.58,1.28-1.74,1.28h-9.19c-1.16,0-1.74-.43-1.74-1.28v-7.23c0-.86.58-1.28,1.74-1.28h9.19c1.16,0,1.74.43,1.74,1.28v7.23Z"/><polygon points="164.35 154.28 164.35 162.06 166.98 162.06 166.98 156.33 177.87 156.33 177.87 154.28 166.98 154.28 164.35 154.28"/><polygon points="164.35 150.2 166.98 150.2 178.66 150.2 178.66 148.15 164.35 148.15 164.35 150.2"/><polygon points="197.04 150.2 204.33 150.2 204.33 162.06 206.96 162.06 206.96 150.2 214.06 150.2 214.06 148.15 197.04 148.15 197.04 150.2"/><polygon points="233.79 153.68 222.4 153.68 222.4 148.15 219.77 148.15 219.77 162.06 222.4 162.06 222.4 155.74 233.79 155.74 233.79 162.06 236.41 162.06 236.41 148.15 233.79 148.15 233.79 153.68"/><polygon points="245.57 155.74 256.65 155.74 256.65 153.68 245.57 153.68 242.94 153.68 242.94 162.06 257.25 162.06 257.25 160.01 245.57 160.01 245.57 155.74"/><polygon points="242.94 150.2 245.57 150.2 257.25 150.2 257.25 148.15 242.94 148.15 242.94 150.2"/><path d="m292.91,154.56c-.35-.3-.8-.53-1.35-.69-.55-.16-1.23-.25-2.02-.25h-8.18c-1.16,0-1.74-.43-1.74-1.28v-.85c0-.86.58-1.28,1.74-1.28h11.78v-2.06h-11.78c-.79,0-1.46.08-2.02.25-.55.16-1.01.4-1.35.69-.35.3-.6.65-.76,1.06-.16.41-.24.86-.24,1.36v.81c0,.5.08.96.24,1.36.16.41.41.76.76,1.06.35.3.8.53,1.35.69s1.23.25,2.02.25h8.18c1.16,0,1.74.43,1.74,1.28v1.76c0,.86-.58,1.28-1.74,1.28h-12.1v2.06h12.1c.79,0,1.46-.08,2.02-.25.55-.16,1-.4,1.35-.69.35-.3.6-.65.76-1.06.16-.41.24-.86.24-1.36v-1.72c0-.5-.08-.96-.24-1.36-.16-.41-.41-.76-.76-1.06Z"/><polygon points="298.73 150.2 306.03 150.2 306.03 162.06 308.66 162.06 308.66 150.2 315.75 150.2 315.75 148.15 298.73 148.15 298.73 150.2"/><path d="m336.15,158.72c0,.86-.58,1.28-1.74,1.28h-8.64c-1.16,0-1.74-.43-1.74-1.28v-10.57h-2.63v10.55c0,.5.08.96.24,1.36.16.41.41.76.76,1.06.35.3.8.53,1.35.69.55.16,1.23.25,2.02.25h9.19c.79,0,1.43-.08,1.93-.25.49-.16.88-.4,1.17-.69.28-.3.47-.65.57-1.06.1-.41.15-.86.15-1.36v-10.55h-2.63v10.57Z"/><path d="m362.04,149.18c-.4-.34-.92-.6-1.58-.77-.66-.17-1.48-.26-2.47-.26h-12.75v13.91h12.75c.99,0,1.81-.09,2.47-.26.66-.17,1.19-.42,1.58-.75.4-.33.68-.74.84-1.24.16-.49.25-1.07.25-1.73v-5.83c0-.69-.08-1.28-.25-1.8s-.44-.94-.84-1.28Zm-1.54,8.89c0,.37-.04.68-.12.93-.08.25-.21.45-.41.59-.19.15-.45.25-.77.32-.32.07-.73.1-1.22.1h-10.12v-9.8h10.12c.49,0,.89.03,1.22.1.32.07.58.18.77.34s.33.37.41.63c.08.26.12.59.12.99v5.81Z"/><rect x="369.65" y="148.15" width="2.63" height="13.91"/><path d="m395.73,149.09c-.35-.3-.8-.53-1.35-.69-.55-.16-1.23-.25-2.02-.25h-9.19c-.79,0-1.46.08-2.02.25-.55.16-1.01.4-1.35.69-.35.3-.6.65-.76,1.06-.16.41-.24.86-.24,1.36v7.19c0,.5.08.96.24,1.36.16.41.41.76.76,1.06.35.3.8.53,1.35.69.55.16,1.23.25,2.02.25h9.19c.79,0,1.46-.08,2.02-.25.55-.16,1-.4,1.35-.69.35-.3.6-.65.76-1.06.16-.41.24-.86.24-1.36v-7.19c0-.5-.08-.96-.24-1.36-.16-.41-.41-.76-.76-1.06Zm-1.63,9.64c0,.86-.58,1.28-1.74,1.28h-9.19c-1.16,0-1.74-.43-1.74-1.28v-7.23c0-.86.58-1.28,1.74-1.28h9.19c1.16,0,1.74.43,1.74,1.28v7.23Z"/><path d="m419.56,155.62c-.16-.41-.41-.76-.76-1.06s-.8-.53-1.35-.69c-.55-.16-1.23-.25-2.02-.25h-8.18c-1.16,0-1.74-.43-1.74-1.28v-.85c0-.86.58-1.28,1.74-1.28h11.78v-2.06h-11.78c-.79,0-1.46.08-2.02.25-.55.16-1.01.4-1.35.69-.35.3-.6.65-.76,1.06-.16.41-.24.86-.24,1.36v.81c0,.5.08.96.24,1.36.16.41.41.76.76,1.06.35.3.8.53,1.35.69s1.23.25,2.02.25h8.18c1.16,0,1.74.43,1.74,1.28v1.76c0,.86-.58,1.28-1.74,1.28h-12.1v2.06h12.1c.79,0,1.46-.08,2.02-.25.55-.16,1-.4,1.35-.69s.6-.65.76-1.06c.16-.41.24-.86.24-1.36v-1.72c0-.5-.08-.96-.24-1.36Z"/><path d="m394.11,71.82c-2.24-4.11-5.23-7.37-8.98-9.79-3.75-2.42-7.98-4.2-12.7-5.35-4.72-1.15-9.55-2.05-14.51-2.72-4.96-.66-9.79-1.27-14.51-1.81-4.72-.54-8.95-1.39-12.7-2.54-3.75-1.15-6.74-2.81-8.98-4.99-2.24-2.18-3.36-5.2-3.36-9.07,0-2.3.45-4.5,1.36-6.62.91-2.11,2.11-3.93,3.63-5.44,1.51-1.51,3.29-2.72,5.35-3.63,2.05-.91,4.29-1.36,6.71-1.36h59.31V.54h-59.31c-4.84,0-9.37.91-13.6,2.72-4.23,1.81-7.95,4.29-11.15,7.44-3.21,3.15-5.71,6.86-7.53,11.15-1.81,4.29-2.72,8.86-2.72,13.69,0,6.53,1.12,11.85,3.36,15.96,2.24,4.11,5.23,7.41,8.98,9.89,3.75,2.48,7.98,4.29,12.7,5.44,4.72,1.15,9.55,2.06,14.51,2.72,4.96.67,9.79,1.27,14.51,1.81s8.95,1.39,12.7,2.54c3.75,1.15,6.74,2.75,8.98,4.81,2.24,2.06,3.36,5.02,3.36,8.89,0,2.3-.42,4.47-1.27,6.53-.85,2.06-2.06,3.84-3.63,5.35-1.57,1.51-3.39,2.69-5.44,3.54-2.06.85-4.29,1.27-6.71,1.27h-104.26V17.96h40.63V0h-136.47c-7.42,0-14.42,1.23-21,3.69-.93.35-1.85.72-2.76,1.11-7.34,3.19-13.75,7.52-19.24,12.98-1.57-2.76-3.46-5.29-5.71-7.54-3.2-3.2-6.92-5.71-11.15-7.53-4.23-1.81-8.77-2.72-13.6-2.72H22.33v122.25h17.96v-52.24h48.61c2.3,0,4.5.45,6.62,1.36,2.11.91,3.93,2.12,5.44,3.63,1.51,1.51,2.72,3.33,3.63,5.44.04.11.08.21.12.32.17.49.34.99.53,1.47.47,1.56.72,3.17.72,4.83,0,2.42-.45,4.66-1.36,6.71-.91,2.06-2.12,3.84-3.63,5.35-1.51,1.51-3.33,2.72-5.44,3.63-1.99.85-4.06,1.29-6.21,1.34h-31.07v17.98h31.48v-.02c4.52-.1,8.78-.99,12.77-2.7,4.23-1.81,7.95-4.32,11.15-7.53,2.29-2.29,4.2-4.85,5.78-7.66,5.47,5.43,11.86,9.74,19.17,12.92,7.37,3.2,15.29,4.81,23.76,4.81s16.2-1.6,23.58-4.81c7.37-3.2,13.81-7.56,19.32-13.06,5.5-5.5,9.85-11.94,13.06-19.32,3.2-7.37,4.81-15.3,4.81-23.76s-1.6-16.23-4.81-23.67c-.2-.46-.42-.91-.62-1.36h-20.57c1.83,2.57,3.4,5.35,4.69,8.34,2.24,5.2,3.36,10.76,3.36,16.69s-1.12,11.49-3.36,16.69c-2.24,5.2-5.29,9.77-9.16,13.69-3.87,3.93-8.41,7.01-13.6,9.25-5.2,2.24-10.76,3.36-16.69,3.36s-11.49-1.12-16.69-3.36c-5.2-2.24-9.77-5.32-13.69-9.25-3.93-3.93-7.01-8.49-9.25-13.69-.08-.18-.14-.37-.22-.55-.38-1.31-.84-2.6-1.38-3.87-1.17-3.9-1.76-7.99-1.76-12.27s.57-8.16,1.68-11.97c.65-1.49,1.2-3.02,1.63-4.59.02-.04.03-.08.05-.12,2.24-5.2,5.32-9.76,9.25-13.69s8.49-7.01,13.69-9.25c1.99-.86,4.03-1.55,6.13-2.07,3.38-.85,6.9-1.28,10.56-1.28h77.89v104.29h122.21c4.72,0,9.22-.88,13.51-2.63,4.29-1.75,8.01-4.2,11.15-7.35,3.14-3.14,5.65-6.8,7.53-10.97,1.87-4.17,2.81-8.73,2.81-13.69,0-6.41-1.12-11.67-3.36-15.78ZM105.37,39.41c-.33.86-.64,1.73-.93,2.61-.89,1.93-2.05,3.62-3.48,5.05-1.51,1.51-3.33,2.72-5.44,3.63-2.12.91-4.33,1.36-6.62,1.36h-48.61V17.96h48.61c2.3,0,4.5.45,6.62,1.36,2.11.91,3.93,2.12,5.44,3.63,1.51,1.51,2.72,3.33,3.63,5.44.91,2.12,1.36,4.32,1.36,6.62,0,1.54-.21,3.01-.58,4.4Z"/></g></svg>