<?xml version="1.0" encoding="UTF-8"?><svg id="Layer_2" xmlns="http://www.w3.org/2000/svg" viewBox="0 0 262.48 262.48"><defs><style>.cls-1{fill:#fff;}</style></defs><g id="Layer_1-2"><path class="cls-1" d="m166.38,162.83h-21.12c-6.95,0-12.61-5.66-12.61-12.61s5.66-12.61,12.61-12.61h2.14c12.09,0,23.06-4.87,31.07-12.74h-33.2c-2.28,0-4.48.3-6.58.87,2.47-3.91,3.9-8.53,3.9-13.48,0-7.55-3.32-14.33-8.57-18.98,5.25-4.65,8.57-11.43,8.57-18.98,0-4.2-1.03-8.17-2.85-11.66,2.46-.62,5.03-.95,7.67-.95,17.42,0,31.6,14.17,31.6,31.6,0,11.09-5.75,20.86-14.42,26.5h18.34c5.53-7.4,8.82-16.57,8.82-26.5,0-24.45-19.89-44.34-44.34-44.34-6.14,0-11.98,1.26-17.3,3.52-5.16,2.2-9.82,5.34-13.77,9.22-5.56,5.47-9.69,12.38-11.76,20.13h13.4c2.13-5.44,5.72-10.14,10.28-13.64,1.01,1.81,1.59,3.9,1.59,6.12,0,6.95-5.66,12.61-12.61,12.61h-33.73v-25.23h26.26c2.25-2.54,5.13-5.29,8.76-7.85,2.09-1.48,4.18-2.72,6.21-3.76-2.37-.74-4.89-1.13-7.5-1.13h-46.47v70.83h12.74v-20.13h33.73c6.95,0,12.61,5.66,12.61,12.61s-5.66,12.61-12.61,12.61h-46.47v12.74h24.61v58.23h12.74v-58.23h9.12c2.28,0,4.49-.31,6.59-.87-2.47,3.91-3.91,8.53-3.91,13.49,0,4.59,1.23,8.89,3.37,12.61,4.38,7.61,12.59,12.74,21.98,12.74h21.12c6.95,0,12.61,5.66,12.61,12.61s-5.66,12.61-12.61,12.61h-95.63v12.74h95.63c13.98,0,25.35-11.37,25.35-25.35,0-4.59-1.23-8.89-3.37-12.61-4.38-7.61-12.59-12.74-21.98-12.74Z"/><path class="cls-1" d="m131.24,262.48c-35.06,0-68.01-13.65-92.8-38.44C13.65,199.25,0,166.29,0,131.24S13.65,63.23,38.44,38.44,96.18,0,131.24,0s68.01,13.65,92.8,38.44c24.79,24.79,38.44,57.74,38.44,92.8s-13.65,68.01-38.44,92.8c-24.79,24.79-57.74,38.44-92.8,38.44Zm0-249.87c-65.41,0-118.63,53.22-118.63,118.63s53.22,118.63,118.63,118.63,118.63-53.22,118.63-118.63S196.65,12.61,131.24,12.61Z"/></g></svg>